<?xml version="1.0" encoding="utf-8"?>
<!-- Generator: Adobe Illustrator 25.2.1, SVG Export Plug-In . SVG Version: 6.00 Build 0)  -->
<svg version="1.1" id="Capa_1" xmlns="http://www.w3.org/2000/svg" xmlns:xlink="http://www.w3.org/1999/xlink" x="0px" y="0px"
	 viewBox="0 0 350.6 82.6" style="enable-background:new 0 0 350.6 82.6;" xml:space="preserve">
<style type="text/css">
	.st0{clip-path:url(#SVGID_2_);fill:none;stroke:#455A6A;stroke-miterlimit:10;}
	.st1{fill:#ED8900;}
	.st2{fill:#9BC31B;}
	.st3{fill:#41BAC0;}
	.st4{clip-path:url(#SVGID_6_);fill:#FFFFFF;}
	.st5{clip-path:url(#SVGID_8_);fill:#605C5B;}
	.st6{clip-path:url(#SVGID_10_);fill:#605C5B;}
	.st7{clip-path:url(#SVGID_12_);fill:#605C5B;}
	.st8{clip-path:url(#SVGID_14_);fill:#605C5B;}
	.st9{clip-path:url(#SVGID_16_);fill:#605C5B;}
	.st10{clip-path:url(#SVGID_18_);fill:#605C5B;}
	.st11{clip-path:url(#SVGID_20_);fill:#605C5B;}
	.st12{enable-background:new    ;}
	.st13{fill:#605C5B;}
</style>
<g>
	<g>
		<g>
			<defs>
				<rect id="SVGID_1_" x="10.5" y="19.1" width="324.7" height="43.8"/>
			</defs>
			<clipPath id="SVGID_2_">
				<use xlink:href="#SVGID_1_"  style="overflow:visible;"/>
			</clipPath>
			<line class="st0" x1="191.8" y1="21.1" x2="191.8" y2="61.6"/>
		</g>
	</g>
	<g>
		<g>
			<defs>
				<rect id="SVGID_3_" x="10.5" y="19.1" width="324.7" height="43.8"/>
			</defs>
			<clipPath id="SVGID_4_">
				<use xlink:href="#SVGID_3_"  style="overflow:visible;"/>
			</clipPath>
		</g>
	</g>
</g>
<polygon class="st1" points="26.3,22.2 26.3,37.3 13.6,29.2 "/>
<polygon class="st2" points="26.3,22.2 39.1,29.2 39.1,45.5 26.3,37.3 "/>
<polygon class="st3" points="13.6,29.2 39.1,45.5 26.3,52.4 13.6,45.5 "/>
<g>
	<g>
		<g>
			<defs>
				<rect id="SVGID_5_" x="10.5" y="19.1" width="324.7" height="43.8"/>
			</defs>
			<clipPath id="SVGID_6_">
				<use xlink:href="#SVGID_5_"  style="overflow:visible;"/>
			</clipPath>
			<path class="st4" d="M39.7,28.2l-12.8-7c-0.3-0.2-0.8-0.2-1.1,0l-12.8,7c-0.4,0.2-0.6,0.6-0.6,1v16.3c0,0.4,0.2,0.8,0.6,1
				l12.8,6.9c0.2,0.1,0.4,0.1,0.6,0.1s0.4,0,0.6-0.1l12.8-6.9c0.4-0.2,0.6-0.6,0.6-1V29.2C40.3,28.8,40,28.4,39.7,28.2 M37.9,43.4
				l-10.5-6.7v-0.1V24.2l10.4,5.7L37.9,43.4L37.9,43.4z M25.2,35.2l-9.3-5.9l9.3-5.1V35.2z M26.3,51.1l-11.6-6.3V31.3l22.1,14.1
				L26.3,51.1z"/>
		</g>
	</g>
	<g>
		<g>
			<defs>
				<rect id="SVGID_7_" x="10.5" y="19.1" width="324.7" height="43.8"/>
			</defs>
			<clipPath id="SVGID_8_">
				<use xlink:href="#SVGID_7_"  style="overflow:visible;"/>
			</clipPath>
			<path class="st5" d="M41.6,27.2l-14.7-7.9c-0.3-0.2-0.8-0.2-1.1,0l-14.7,7.9c-0.4,0.2-0.6,0.6-0.6,1v18.4c0,0.4,0.2,0.8,0.6,1
				l14.7,7.8c0.2,0.1,0.4,0.1,0.5,0.1c0.2,0,0.4,0,0.5-0.1l14.7-7.8c0.4-0.2,0.6-0.6,0.6-1V28.2C42.2,27.8,42,27.4,41.6,27.2
				 M40.3,45.5c0,0.4-0.2,0.8-0.6,1l-12.8,6.9c-0.2,0.1-0.4,0.1-0.6,0.1s-0.4,0-0.6-0.1L13,46.5c-0.4-0.2-0.6-0.6-0.6-1V29.2
				c0-0.4,0.2-0.8,0.6-1l12.8-7c0.3-0.2,0.8-0.2,1.1,0l12.8,7c0.4,0.2,0.6,0.6,0.6,1V45.5z"/>
		</g>
	</g>
	<g>
		<g>
			<defs>
				<rect id="SVGID_9_" x="10.5" y="19.1" width="324.7" height="43.8"/>
			</defs>
			<clipPath id="SVGID_10_">
				<use xlink:href="#SVGID_9_"  style="overflow:visible;"/>
			</clipPath>
			<path class="st6" d="M50.6,41.7V21.1h4.2v13.5c1.6-2.9,4.6-4.5,8.2-4.5c5.8,0,11.2,4.2,11.2,11.5c0,6.9-4.9,11.8-11.9,11.8
				C55.6,53.5,50.6,48.9,50.6,41.7 M70,41.8c0-4.5-3-7.7-7.6-7.7c-4.5,0-7.6,3.2-7.6,7.7s3,7.7,7.6,7.7S70,46.3,70,41.8"/>
		</g>
	</g>
	<g>
		<g>
			<defs>
				<rect id="SVGID_11_" x="10.5" y="19.1" width="324.7" height="43.8"/>
			</defs>
			<clipPath id="SVGID_12_">
				<use xlink:href="#SVGID_11_"  style="overflow:visible;"/>
			</clipPath>
			<rect x="78.6" y="30.8" class="st7" width="4.2" height="22.1"/>
		</g>
	</g>
	<g>
		<g>
			<defs>
				<rect id="SVGID_13_" x="10.5" y="19.1" width="324.7" height="43.8"/>
			</defs>
			<clipPath id="SVGID_14_">
				<use xlink:href="#SVGID_13_"  style="overflow:visible;"/>
			</clipPath>
			<polygon class="st8" points="87.5,49.4 101.7,34.6 88.1,34.6 88.1,30.8 107.4,30.8 107.4,34.3 93.1,49.1 107.8,49.1 107.8,52.9 
				87.5,52.9 			"/>
		</g>
	</g>
	<g>
		<g>
			<defs>
				<rect id="SVGID_15_" x="10.5" y="19.1" width="324.7" height="43.8"/>
			</defs>
			<clipPath id="SVGID_16_">
				<use xlink:href="#SVGID_15_"  style="overflow:visible;"/>
			</clipPath>
			<path class="st9" d="M110.5,42c0-6.9,4.9-11.8,11.9-11.8c6.9,0,11.8,4.7,11.8,11.8v10.9h-3.9V48c-1.5,3.6-4.7,5.4-8.6,5.4
				C115.9,53.5,110.5,49.3,110.5,42 M130,41.8c0-4.5-3-7.7-7.6-7.7s-7.6,3.2-7.6,7.7s3,7.7,7.6,7.7C126.9,49.5,130,46.3,130,41.8"/>
		</g>
	</g>
	<g>
		<g>
			<defs>
				<rect id="SVGID_17_" x="10.5" y="19.1" width="324.7" height="43.8"/>
			</defs>
			<clipPath id="SVGID_18_">
				<use xlink:href="#SVGID_17_"  style="overflow:visible;"/>
			</clipPath>
			<path class="st10" d="M138.5,55.5h4.3c1,2.5,3.6,3.7,6.8,3.7c4.5,0,7.5-2.1,7.5-7.9v-2.5c-1.5,2.9-4.6,4.6-8.3,4.6
				c-5.7,0-11.2-3.9-11.2-11.4c0-6.7,4.9-11.6,11.9-11.6s11.8,4.7,11.8,11.8v9.1c0,8.5-5.2,11.8-11.7,11.8
				C144.2,62.9,140,60.6,138.5,55.5 M157.2,41.8c0-4.5-3-7.7-7.6-7.7s-7.6,3.2-7.6,7.7s3,7.5,7.6,7.5S157.2,46.3,157.2,41.8"/>
		</g>
	</g>
	<g>
		<g>
			<defs>
				<rect id="SVGID_19_" x="10.5" y="19.1" width="324.7" height="43.8"/>
			</defs>
			<clipPath id="SVGID_20_">
				<use xlink:href="#SVGID_19_"  style="overflow:visible;"/>
			</clipPath>
			<rect x="166.5" y="30.8" class="st11" width="4.2" height="22.1"/>
		</g>
	</g>
</g>
<g>
	<g class="st12">
		<path class="st13" d="M212.5,51V33.3H225v3.8h-8.1v3.1h7v3.6h-7v3.4h8.4V51H212.5z"/>
	</g>
	<g class="st12">
		<path class="st13" d="M228.5,51V32.3h4.3V51H228.5z"/>
	</g>
	<g class="st12">
		<path class="st13" d="M242.5,51.2c-1.5,0-2.8-0.3-3.9-0.9c-1.1-0.6-2-1.4-2.6-2.5c-0.6-1-0.9-2.2-0.9-3.6c0-1.4,0.3-2.6,0.9-3.6
			s1.4-1.9,2.4-2.5s2.2-0.9,3.5-0.9s2.4,0.3,3.4,0.9c1,0.6,1.7,1.4,2.3,2.4c0.5,1,0.8,2.2,0.8,3.5v1.1h-9.1c0.2,0.7,0.6,1.3,1.3,1.7
			c0.6,0.4,1.4,0.6,2.4,0.6c0.6,0,1-0.1,1.5-0.2s0.9-0.4,1.4-0.8l2,2.8c-0.8,0.7-1.7,1.2-2.6,1.5C244.4,51.1,243.4,51.2,242.5,51.2z
			 M242,40.8c-1.5,0-2.5,0.7-2.8,2.1h5.2l0,0c0-0.6-0.3-1.1-0.7-1.5C243.3,41,242.7,40.8,242,40.8z"/>
		<path class="st13" d="M255.8,51.2c-1.1,0-2.1-0.3-3-0.9s-1.6-1.4-2.1-2.5s-0.8-2.2-0.8-3.6c0-1.4,0.3-2.6,0.8-3.6s1.2-1.9,2.1-2.5
			c0.9-0.6,1.9-0.9,3.1-0.9c0.9,0,1.6,0.2,2.3,0.5s1.2,0.8,1.6,1.3v-1.5h4.2V51h-4.3v-1.5c-0.5,0.5-1,0.9-1.7,1.3
			S256.6,51.2,255.8,51.2z M257,47.6c0.9,0,1.6-0.3,2.1-0.9c0.5-0.6,0.8-1.4,0.8-2.5c0-1-0.3-1.8-0.8-2.5c-0.5-0.6-1.2-0.9-2.1-0.9
			s-1.6,0.3-2.1,0.9c-0.5,0.6-0.8,1.4-0.8,2.5c0,1,0.3,1.9,0.8,2.5C255.4,47.3,256.1,47.6,257,47.6z"/>
		<path class="st13" d="M267.6,51V37.5h4l0.1,2c0.5-0.7,1-1.2,1.7-1.6c0.7-0.4,1.4-0.6,2.2-0.6c0.3,0,0.6,0,0.8,0.1
			c0.3,0.1,0.5,0.1,0.7,0.2l-1.2,4.7c-0.2-0.1-0.4-0.2-0.8-0.3c-0.3-0.1-0.7-0.1-1-0.1c-0.7,0-1.3,0.2-1.7,0.7
			c-0.4,0.5-0.7,1.1-0.7,1.8V51H267.6z"/>
		<path class="st13" d="M279.3,51V37.5h4l0.1,1.6c0.5-0.6,1.1-1,1.8-1.3c0.7-0.3,1.5-0.5,2.3-0.5c1.5,0,2.7,0.5,3.5,1.4
			s1.2,2.3,1.2,4V51h-4.3v-7.9c0-1.5-0.6-2.3-1.9-2.2c-0.7,0-1.2,0.2-1.7,0.6c-0.4,0.4-0.7,0.9-0.7,1.5v8
			C283.6,51,279.3,51,279.3,51z"/>
		<path class="st13" d="M297.9,34.9c-0.8,0-1.4-0.2-1.8-0.6s-0.7-0.9-0.7-1.6c0-0.6,0.2-1.1,0.7-1.5s1.1-0.6,1.8-0.6
			c0.8,0,1.4,0.2,1.9,0.6c0.4,0.4,0.7,0.9,0.7,1.6c0,0.6-0.2,1.2-0.7,1.6C299.3,34.7,298.7,34.9,297.9,34.9z M295.8,51V37.5h4.3V51
			H295.8z"/>
		<path class="st13" d="M303.9,51V37.5h4l0.1,1.6c0.5-0.6,1.1-1,1.8-1.3c0.7-0.3,1.5-0.5,2.3-0.5c1.5,0,2.7,0.5,3.5,1.4
			s1.2,2.3,1.2,4V51h-4.3v-7.9c0-1.5-0.6-2.3-1.9-2.2c-0.7,0-1.2,0.2-1.7,0.6c-0.4,0.4-0.7,0.9-0.7,1.5v8
			C308.2,51,303.9,51,303.9,51z"/>
		<path class="st13" d="M326.2,56.8c-1.1,0-2.2-0.2-3.3-0.5c-1.1-0.3-2-0.7-2.7-1.3l1.5-3c0.5,0.4,1.1,0.6,1.8,0.8s1.4,0.3,2.1,0.3
			c1.2,0,2.2-0.3,2.7-0.8c0.6-0.5,0.9-1.4,0.9-2.5v-0.6c-0.5,0.5-1,0.8-1.7,1.1s-1.4,0.4-2.2,0.4c-1.2,0-2.3-0.3-3.2-0.8
			c-0.9-0.6-1.7-1.3-2.2-2.3s-0.8-2.1-0.8-3.5c0-1.3,0.3-2.5,0.8-3.6c0.5-1,1.3-1.8,2.2-2.4c0.9-0.6,2-0.9,3.2-0.9
			c0.9,0,1.6,0.2,2.4,0.5c0.7,0.3,1.3,0.7,1.8,1.2l0.1-1.4h4v12.3c0,2.2-0.7,3.9-2,5.1C330.3,56.2,328.5,56.8,326.2,56.8z
			 M326.3,47.6c0.9,0,1.7-0.3,2.2-0.9s0.8-1.4,0.8-2.5c0-1-0.3-1.8-0.8-2.4c-0.5-0.6-1.3-0.9-2.2-0.9s-1.7,0.3-2.2,0.9
			c-0.5,0.6-0.8,1.4-0.8,2.4s0.3,1.8,0.8,2.4C324.7,47.3,325.4,47.6,326.3,47.6z"/>
	</g>
</g>
</svg>
